<svg xmlns="http://www.w3.org/2000/svg" viewBox="0 0 642 635" width="100%" height="100%">
<path fill="#000000" d="M320,3h2v1h-2Z M319,4h4v1h-4Z M318,5h6v1h-6Z M317,6h8v1h-8Z M316,7h10v1h-10Z M315,8h12v1h-12Z M314,9h14v1h-14Z M313,10h16v1h-16Z M312,11h18v1h-18Z M311,12h20v1h-20Z M310,13h22v1h-22Z M309,14h24v1h-24Z M308,15h26v1h-26Z M307,16h13v1h-13Z M322,16h13v1h-13Z M306,17h13v1h-13Z M323,17h13v1h-13Z M305,18h13v1h-13Z M324,18h13v1h-13Z M304,19h13v1h-13Z M325,19h13v1h-13Z M303,20h13v1h-13Z M326,20h13v1h-13Z M303,21h12v1h-12Z M327,21h13v1h-13Z M302,22h12v1h-12Z M328,22h12v1h-12Z M301,23h12v1h-12Z M329,23h12v1h-12Z M300,24h12v1h-12Z M330,24h12v1h-12Z M299,25h12v1h-12Z M331,25h12v1h-12Z M298,26h13v1h-13Z M331,26h13v1h-13Z M297,27h13v1h-13Z M332,27h13v1h-13Z M296,28h13v1h-13Z M333,28h13v1h-13Z M296,29h12v1h-12Z M334,29h13v1h-13Z M295,30h12v1h-12Z M335,30h12v1h-12Z M294,31h12v1h-12Z M336,31h12v1h-12Z M293,32h12v1h-12Z M337,32h12v1h-12Z M292,33h12v1h-12Z M338,33h12v1h-12Z M291,34h13v1h-13Z M339,34h12v1h-12Z M291,35h12v1h-12Z M339,35h13v1h-13Z M290,36h12v1h-12Z M340,36h12v1h-12Z M289,37h12v1h-12Z M341,37h12v1h-12Z M288,38h12v1h-12Z M342,38h12v1h-12Z M287,39h12v1h-12Z M343,39h12v1h-12Z M287,40h11v1h-11Z M344,40h11v1h-11Z M286,41h12v1h-12Z M344,41h12v1h-12Z M285,42h12v1h-12Z M345,42h12v1h-12Z M284,43h12v1h-12Z M346,43h12v1h-12Z M284,44h11v1h-11Z M347,44h11v1h-11Z M283,45h12v1h-12Z M347,45h12v1h-12Z M282,46h12v1h-12Z M348,46h12v1h-12Z M282,47h11v1h-11Z M349,47h11v1h-11Z M281,48h12v1h-12Z M349,48h12v1h-12Z M280,49h12v1h-12Z M350,49h12v1h-12Z M280,50h11v1h-11Z M351,50h11v1h-11Z M279,51h11v1h-11Z M352,51h11v1h-11Z M278,52h12v1h-12Z M352,52h12v1h-12Z M278,53h11v1h-11Z M353,53h11v1h-11Z M277,54h11v1h-11Z M354,54h11v1h-11Z M276,55h12v1h-12Z M354,55h12v1h-12Z M276,56h11v1h-11Z M355,56h11v1h-11Z M275,57h11v1h-11Z M356,57h11v1h-11Z M274,58h11v1h-11Z M357,58h11v1h-11Z M274,59h11v1h-11Z M357,59h11v1h-11Z M273,60h11v1h-11Z M358,60h11v1h-11Z M273,61h11v1h-11Z M358,61h11v1h-11Z M272,62h11v1h-11Z M359,62h11v1h-11Z M271,63h11v1h-11Z M360,63h11v1h-11Z M271,64h11v1h-11Z M360,64h11v1h-11Z M270,65h11v1h-11Z M361,65h11v1h-11Z M270,66h10v1h-10Z M362,66h10v1h-10Z M269,67h11v1h-11Z M362,67h11v1h-11Z M268,68h11v1h-11Z M363,68h10v1h-10Z M268,69h11v1h-11Z M363,69h11v1h-11Z M267,70h11v1h-11Z M364,70h10v1h-10Z M267,71h11v1h-11Z M365,71h10v1h-10Z M266,72h11v1h-11Z M365,72h11v1h-11Z M266,73h10v1h-10Z M366,73h10v1h-10Z M265,74h11v1h-11Z M366,74h11v1h-11Z M265,75h10v1h-10Z M367,75h10v1h-10Z M264,76h11v1h-11Z M367,76h11v1h-11Z M264,77h10v1h-10Z M368,77h10v1h-10Z M263,78h11v1h-11Z M368,78h11v1h-11Z M263,79h10v1h-10Z M369,79h10v1h-10Z M262,80h11v1h-11Z M369,80h11v1h-11Z M262,81h10v1h-10Z M370,81h10v1h-10Z M261,82h11v1h-11Z M370,82h11v1h-11Z M261,83h10v1h-10Z M371,83h10v1h-10Z M260,84h11v1h-11Z M371,84h11v1h-11Z M260,85h10v1h-10Z M372,85h10v1h-10Z M260,86h10v1h-10Z M372,86h10v1h-10Z M259,87h10v1h-10Z M373,87h10v1h-10Z M259,88h10v1h-10Z M373,88h10v1h-10Z M258,89h10v1h-10Z M374,89h10v1h-10Z M258,90h10v1h-10Z M374,90h10v1h-10Z M257,91h10v1h-10Z M375,91h10v1h-10Z M257,92h10v1h-10Z M375,92h10v1h-10Z M256,93h10v1h-10Z M375,93h10v1h-10Z M256,94h10v1h-10Z M376,94h10v1h-10Z M124,95h2v1h-2Z M256,95h10v1h-10Z M376,95h10v1h-10Z M516,95h3v1h-3Z M123,96h17v1h-17Z M255,96h10v1h-10Z M377,96h10v1h-10Z M504,96h16v1h-16Z M123,97h25v1h-25Z M255,97h10v1h-10Z M377,97h10v1h-10Z M496,97h24v1h-24Z M123,98h30v1h-30Z M254,98h10v1h-10Z M378,98h9v1h-9Z M491,98h29v1h-29Z M123,99h35v1h-35Z M254,99h10v1h-10Z M378,99h10v1h-10Z M486,99h34v1h-34Z M123,100h39v1h-39Z M254,100h10v1h-10Z M378,100h10v1h-10Z M482,100h38v1h-38Z M123,101h43v1h-43Z M253,101h10v1h-10Z M379,101h10v1h-10Z M478,101h42v1h-42Z M123,102h46v1h-46Z M253,102h10v1h-10Z M379,102h10v1h-10Z M474,102h46v1h-46Z M123,103h49v1h-49Z M253,103h9v1h-9Z M380,103h9v1h-9Z M471,103h49v1h-49Z M123,104h52v1h-52Z M252,104h10v1h-10Z M380,104h10v1h-10Z M469,104h51v1h-51Z M123,105h9v1h-9Z M140,105h37v1h-37Z M252,105h10v1h-10Z M380,105h10v1h-10Z M466,105h39v1h-39Z M510,105h10v1h-10Z M123,106h9v1h-9Z M147,106h33v1h-33Z M251,106h10v1h-10Z M381,106h9v1h-9Z M463,106h34v1h-34Z M511,106h9v1h-9Z M123,107h9v1h-9Z M153,107h30v1h-30Z M251,107h10v1h-10Z M381,107h10v1h-10Z M461,107h30v1h-30Z M511,107h9v1h-9Z M123,108h9v1h-9Z M158,108h27v1h-27Z M251,108h10v1h-10Z M381,108h10v1h-10Z M458,108h28v1h-28Z M511,108h9v1h-9Z M123,109h9v1h-9Z M162,109h25v1h-25Z M250,109h10v1h-10Z M382,109h9v1h-9Z M456,109h27v1h-27Z M511,109h9v1h-9Z M123,110h9v1h-9Z M165,110h24v1h-24Z M250,110h10v1h-10Z M382,110h10v1h-10Z M454,110h25v1h-25Z M511,110h9v1h-9Z M123,111h9v1h-9Z M169,111h22v1h-22Z M250,111h9v1h-9Z M382,111h10v1h-10Z M452,111h24v1h-24Z M511,111h9v1h-9Z M123,112h9v1h-9Z M172,112h21v1h-21Z M250,112h9v1h-9Z M383,112h9v1h-9Z M450,112h22v1h-22Z M511,112h9v1h-9Z M123,113h9v1h-9Z M174,113h21v1h-21Z M249,113h10v1h-10Z M383,113h10v1h-10Z M448,113h21v1h-21Z M511,113h9v1h-9Z M123,114h9v1h-9Z M177,114h20v1h-20Z M249,114h9v1h-9Z M383,114h10v1h-10Z M446,114h21v1h-21Z M511,114h9v1h-9Z M123,115h9v1h-9Z M179,115h20v1h-20Z M248,115h10v1h-10Z M384,115h9v1h-9Z M444,115h20v1h-20Z M511,115h9v1h-9Z M123,116h9v1h-9Z M182,116h18v1h-18Z M248,116h10v1h-10Z M384,116h9v1h-9Z M442,116h20v1h-20Z M511,116h9v1h-9Z M123,117h9v1h-9Z M184,117h18v1h-18Z M248,117h9v1h-9Z M384,117h10v1h-10Z M441,117h18v1h-18Z M511,117h9v1h-9Z M123,118h9v1h-9Z M186,118h17v1h-17Z M248,118h9v1h-9Z M385,118h9v1h-9Z M439,118h18v1h-18Z M511,118h9v1h-9Z M123,119h9v1h-9Z M188,119h17v1h-17Z M247,119h10v1h-10Z M385,119h9v1h-9Z M437,119h18v1h-18Z M511,119h9v1h-9Z M123,120h9v1h-9Z M190,120h17v1h-17Z M247,120h10v1h-10Z M385,120h10v1h-10Z M436,120h17v1h-17Z M511,120h9v1h-9Z M123,121h9v1h-9Z M192,121h16v1h-16Z M247,121h9v1h-9Z M385,121h10v1h-10Z M434,121h17v1h-17Z M511,121h9v1h-9Z M123,122h9v1h-9Z M194,122h15v1h-15Z M247,122h9v1h-9Z M386,122h9v1h-9Z M433,122h16v1h-16Z M511,122h9v1h-9Z M123,123h9v1h-9Z M195,123h16v1h-16Z M246,123h10v1h-10Z M386,123h9v1h-9Z M431,123h16v1h-16Z M511,123h9v1h-9Z M123,124h9v1h-9Z M197,124h15v1h-15Z M246,124h10v1h-10Z M386,124h10v1h-10Z M430,124h15v1h-15Z M511,124h9v1h-9Z M123,125h9v1h-9Z M199,125h14v1h-14Z M246,125h9v1h-9Z M386,125h10v1h-10Z M429,125h15v1h-15Z M510,125h10v1h-10Z M123,126h9v1h-9Z M200,126h15v1h-15Z M245,126h10v1h-10Z M387,126h9v1h-9Z M427,126h15v1h-15Z M510,126h10v1h-10Z M123,127h9v1h-9Z M202,127h14v1h-14Z M245,127h10v1h-10Z M387,127h9v1h-9Z M426,127h14v1h-14Z M510,127h9v1h-9Z M124,128h8v1h-8Z M203,128h14v1h-14Z M245,128h9v1h-9Z M387,128h10v1h-10Z M425,128h14v1h-14Z M510,128h9v1h-9Z M124,129h9v1h-9Z M205,129h13v1h-13Z M245,129h9v1h-9Z M388,129h9v1h-9Z M424,129h13v1h-13Z M510,129h9v1h-9Z M124,130h9v1h-9Z M206,130h13v1h-13Z M244,130h10v1h-10Z M388,130h9v1h-9Z M422,130h14v1h-14Z M510,130h9v1h-9Z M124,131h9v1h-9Z M207,131h13v1h-13Z M244,131h10v1h-10Z M388,131h9v1h-9Z M421,131h13v1h-13Z M510,131h9v1h-9Z M124,132h9v1h-9Z M209,132h13v1h-13Z M244,132h9v1h-9Z M388,132h10v1h-10Z M420,132h13v1h-13Z M510,132h9v1h-9Z M124,133h9v1h-9Z M210,133h13v1h-13Z M244,133h9v1h-9Z M388,133h10v1h-10Z M419,133h12v1h-12Z M510,133h9v1h-9Z M124,134h9v1h-9Z M212,134h12v1h-12Z M244,134h9v1h-9Z M389,134h9v1h-9Z M418,134h12v1h-12Z M510,134h9v1h-9Z M124,135h9v1h-9Z M213,135h12v1h-12Z M243,135h10v1h-10Z M389,135h9v1h-9Z M417,135h12v1h-12Z M510,135h9v1h-9Z M124,136h9v1h-9Z M214,136h12v1h-12Z M243,136h10v1h-10Z M389,136h9v1h-9Z M416,136h12v1h-12Z M510,136h9v1h-9Z M124,137h9v1h-9Z M215,137h12v1h-12Z M243,137h9v1h-9Z M389,137h9v1h-9Z M415,137h12v1h-12Z M509,137h9v1h-9Z M125,138h8v1h-8Z M216,138h12v1h-12Z M243,138h9v1h-9Z M389,138h10v1h-10Z M414,138h11v1h-11Z M509,138h9v1h-9Z M125,139h9v1h-9Z M217,139h12v1h-12Z M243,139h9v1h-9Z M390,139h9v1h-9Z M413,139h11v1h-11Z M509,139h9v1h-9Z M125,140h9v1h-9Z M218,140h12v1h-12Z M242,140h10v1h-10Z M390,140h9v1h-9Z M412,140h11v1h-11Z M509,140h9v1h-9Z M125,141h9v1h-9Z M219,141h12v1h-12Z M242,141h10v1h-10Z M390,141h9v1h-9Z M411,141h11v1h-11Z M509,141h9v1h-9Z M125,142h9v1h-9Z M221,142h10v1h-10Z M242,142h10v1h-10Z M390,142h9v1h-9Z M410,142h11v1h-11Z M509,142h9v1h-9Z M125,143h9v1h-9Z M222,143h10v1h-10Z M242,143h9v1h-9Z M390,143h9v1h-9Z M409,143h11v1h-11Z M509,143h8v1h-8Z M126,144h8v1h-8Z M223,144h10v1h-10Z M242,144h9v1h-9Z M390,144h10v1h-10Z M408,144h11v1h-11Z M509,144h8v1h-8Z M126,145h9v1h-9Z M224,145h10v1h-10Z M242,145h9v1h-9Z M391,145h9v1h-9Z M407,145h11v1h-11Z M508,145h9v1h-9Z M126,146h9v1h-9Z M225,146h9v1h-9Z M242,146h9v1h-9Z M391,146h9v1h-9Z M407,146h10v1h-10Z M508,146h9v1h-9Z M126,147h9v1h-9Z M226,147h8v1h-8Z M241,147h10v1h-10Z M391,147h9v1h-9Z M407,147h9v1h-9Z M508,147h9v1h-9Z M126,148h9v1h-9Z M227,148h7v1h-7Z M241,148h9v1h-9Z M391,148h9v1h-9Z M407,148h8v1h-8Z M508,148h9v1h-9Z M126,149h9v1h-9Z M228,149h6v1h-6Z M241,149h9v1h-9Z M391,149h9v1h-9Z M407,149h7v1h-7Z M507,149h9v1h-9Z M127,150h9v1h-9Z M228,150h6v1h-6Z M241,150h9v1h-9Z M391,150h9v1h-9Z M407,150h6v1h-6Z M507,150h9v1h-9Z M127,151h9v1h-9Z M229,151h5v1h-5Z M241,151h9v1h-9Z M391,151h10v1h-10Z M407,151h5v1h-5Z M507,151h9v1h-9Z M127,152h9v1h-9Z M230,152h4v1h-4Z M241,152h9v1h-9Z M392,152h9v1h-9Z M407,152h4v1h-4Z M507,152h9v1h-9Z M127,153h9v1h-9Z M231,153h3v1h-3Z M241,153h9v1h-9Z M392,153h9v1h-9Z M407,153h3v1h-3Z M507,153h9v1h-9Z M127,154h9v1h-9Z M232,154h2v1h-2Z M241,154h9v1h-9Z M392,154h9v1h-9Z M407,154h3v1h-3Z M506,154h9v1h-9Z M128,155h9v1h-9Z M233,155h1v1h-1Z M240,155h9v1h-9Z M392,155h9v1h-9Z M407,155h2v1h-2Z M506,155h9v1h-9Z M128,156h9v1h-9Z M240,156h9v1h-9Z M392,156h9v1h-9Z M407,156h1v1h-1Z M506,156h9v1h-9Z M128,157h9v1h-9Z M240,157h9v1h-9Z M392,157h9v1h-9Z M506,157h9v1h-9Z M128,158h9v1h-9Z M240,158h9v1h-9Z M392,158h9v1h-9Z M505,158h10v1h-10Z M129,159h8v1h-8Z M240,159h9v1h-9Z M392,159h9v1h-9Z M505,159h9v1h-9Z M129,160h9v1h-9Z M240,160h9v1h-9Z M392,160h9v1h-9Z M505,160h9v1h-9Z M129,161h9v1h-9Z M240,161h9v1h-9Z M392,161h9v1h-9Z M505,161h9v1h-9Z M129,162h9v1h-9Z M240,162h9v1h-9Z M392,162h9v1h-9Z M505,162h8v1h-8Z M130,163h9v1h-9Z M240,163h9v1h-9Z M393,163h8v1h-8Z M504,163h9v1h-9Z M130,164h9v1h-9Z M240,164h9v1h-9Z M393,164h9v1h-9Z M504,164h9v1h-9Z M130,165h9v1h-9Z M240,165h8v1h-8Z M393,165h9v1h-9Z M504,165h8v1h-8Z M131,166h9v1h-9Z M240,166h8v1h-8Z M393,166h9v1h-9Z M503,166h9v1h-9Z M131,167h9v1h-9Z M240,167h8v1h-8Z M393,167h9v1h-9Z M503,167h9v1h-9Z M131,168h9v1h-9Z M239,168h9v1h-9Z M393,168h9v1h-9Z M503,168h9v1h-9Z M131,169h9v1h-9Z M239,169h9v1h-9Z M393,169h9v1h-9Z M502,169h9v1h-9Z M132,170h9v1h-9Z M239,170h9v1h-9Z M393,170h9v1h-9Z M502,170h9v1h-9Z M132,171h9v1h-9Z M239,171h9v1h-9Z M393,171h9v1h-9Z M502,171h9v1h-9Z M132,172h9v1h-9Z M239,172h9v1h-9Z M393,172h9v1h-9Z M501,172h9v1h-9Z M133,173h9v1h-9Z M239,173h9v1h-9Z M393,173h9v1h-9Z M501,173h9v1h-9Z M133,174h9v1h-9Z M239,174h9v1h-9Z M393,174h9v1h-9Z M501,174h9v1h-9Z M133,175h9v1h-9Z M239,175h9v1h-9Z M393,175h9v1h-9Z M500,175h9v1h-9Z M134,176h9v1h-9Z M239,176h9v1h-9Z M393,176h9v1h-9Z M500,176h9v1h-9Z M134,177h9v1h-9Z M239,177h9v1h-9Z M393,177h9v1h-9Z M499,177h9v1h-9Z M135,178h9v1h-9Z M239,178h9v1h-9Z M393,178h9v1h-9Z M499,178h9v1h-9Z M135,179h9v1h-9Z M239,179h9v1h-9Z M393,179h9v1h-9Z M498,179h10v1h-10Z M135,180h9v1h-9Z M239,180h9v1h-9Z M393,180h9v1h-9Z M498,180h9v1h-9Z M136,181h9v1h-9Z M240,181h8v1h-8Z M393,181h9v1h-9Z M498,181h9v1h-9Z M136,182h9v1h-9Z M240,182h8v1h-8Z M393,182h9v1h-9Z M497,182h9v1h-9Z M137,183h9v1h-9Z M240,183h8v1h-8Z M393,183h8v1h-8Z M497,183h9v1h-9Z M137,184h9v1h-9Z M240,184h8v1h-8Z M393,184h8v1h-8Z M496,184h10v1h-10Z M137,185h9v1h-9Z M240,185h8v1h-8Z M393,185h8v1h-8Z M496,185h9v1h-9Z M138,186h9v1h-9Z M240,186h9v1h-9Z M392,186h9v1h-9Z M495,186h10v1h-10Z M138,187h9v1h-9Z M240,187h9v1h-9Z M392,187h9v1h-9Z M495,187h9v1h-9Z M139,188h9v1h-9Z M240,188h9v1h-9Z M392,188h9v1h-9Z M494,188h10v1h-10Z M139,189h9v1h-9Z M240,189h9v1h-9Z M392,189h9v1h-9Z M494,189h9v1h-9Z M140,190h9v1h-9Z M240,190h9v1h-9Z M392,190h9v1h-9Z M493,190h10v1h-10Z M140,191h9v1h-9Z M240,191h9v1h-9Z M392,191h9v1h-9Z M493,191h9v1h-9Z M141,192h9v1h-9Z M240,192h9v1h-9Z M392,192h9v1h-9Z M492,192h10v1h-10Z M141,193h9v1h-9Z M240,193h9v1h-9Z M392,193h9v1h-9Z M492,193h9v1h-9Z M142,194h9v1h-9Z M240,194h9v1h-9Z M392,194h9v1h-9Z M491,194h10v1h-10Z M142,195h9v1h-9Z M241,195h8v1h-8Z M392,195h8v1h-8Z M491,195h9v1h-9Z M143,196h9v1h-9Z M241,196h8v1h-8Z M391,196h9v1h-9Z M490,196h9v1h-9Z M143,197h10v1h-10Z M241,197h9v1h-9Z M391,197h9v1h-9Z M490,197h9v1h-9Z M144,198h9v1h-9Z M241,198h9v1h-9Z M391,198h9v1h-9Z M489,198h9v1h-9Z M144,199h10v1h-10Z M241,199h9v1h-9Z M391,199h9v1h-9Z M488,199h10v1h-10Z M145,200h9v1h-9Z M241,200h9v1h-9Z M391,200h9v1h-9Z M488,200h9v1h-9Z M146,201h9v1h-9Z M241,201h9v1h-9Z M391,201h9v1h-9Z M487,201h10v1h-10Z M146,202h9v1h-9Z M241,202h9v1h-9Z M391,202h9v1h-9Z M487,202h9v1h-9Z M147,203h9v1h-9Z M242,203h8v1h-8Z M390,203h9v1h-9Z M486,203h9v1h-9Z M147,204h10v1h-10Z M242,204h9v1h-9Z M390,204h9v1h-9Z M485,204h10v1h-10Z M148,205h9v1h-9Z M242,205h9v1h-9Z M390,205h9v1h-9Z M484,205h10v1h-10Z M149,206h9v1h-9Z M242,206h9v1h-9Z M390,206h9v1h-9Z M484,206h9v1h-9Z M149,207h10v1h-10Z M242,207h9v1h-9Z M390,207h9v1h-9Z M483,207h10v1h-10Z M150,208h10v1h-10Z M242,208h9v1h-9Z M390,208h9v1h-9Z M482,208h10v1h-10Z M151,209h9v1h-9Z M243,209h8v1h-8Z M389,209h10v1h-10Z M482,209h9v1h-9Z M151,210h10v1h-10Z M243,210h9v1h-9Z M389,210h9v1h-9Z M481,210h10v1h-10Z M152,211h10v1h-10Z M243,211h9v1h-9Z M389,211h9v1h-9Z M480,211h10v1h-10Z M153,212h9v1h-9Z M243,212h9v1h-9Z M389,212h9v1h-9Z M479,212h10v1h-10Z M153,213h10v1h-10Z M243,213h9v1h-9Z M389,213h9v1h-9Z M479,213h10v1h-10Z M154,214h10v1h-10Z M244,214h8v1h-8Z M389,214h9v1h-9Z M478,214h10v1h-10Z M155,215h10v1h-10Z M244,215h9v1h-9Z M388,215h9v1h-9Z M477,215h10v1h-10Z M156,216h10v1h-10Z M244,216h9v1h-9Z M388,216h9v1h-9Z M476,216h10v1h-10Z M157,217h10v1h-10Z M244,217h9v1h-9Z M388,217h9v1h-9Z M475,217h10v1h-10Z M158,218h10v1h-10Z M244,218h9v1h-9Z M388,218h9v1h-9Z M474,218h10v1h-10Z M158,219h10v1h-10Z M245,219h8v1h-8Z M387,219h9v1h-9Z M473,219h11v1h-11Z M159,220h10v1h-10Z M245,220h9v1h-9Z M387,220h9v1h-9Z M472,220h11v1h-11Z M160,221h11v1h-11Z M245,221h9v1h-9Z M387,221h9v1h-9Z M471,221h11v1h-11Z M161,222h11v1h-11Z M245,222h9v1h-9Z M387,222h9v1h-9Z M470,222h11v1h-11Z M162,223h11v1h-11Z M246,223h8v1h-8Z M386,223h9v1h-9Z M469,223h11v1h-11Z M163,224h11v1h-11Z M246,224h9v1h-9Z M386,224h9v1h-9Z M468,224h11v1h-11Z M164,225h11v1h-11Z M246,225h9v1h-9Z M386,225h9v1h-9Z M467,225h9v1h-9Z M165,226h11v1h-11Z M246,226h9v1h-9Z M386,226h9v1h-9Z M466,226h5v1h-5Z M168,227h9v1h-9Z M247,227h9v1h-9Z M385,227h9v1h-9Z M465,227h2v1h-2Z M172,228h6v1h-6Z M247,228h9v1h-9Z M385,228h9v1h-9Z M175,229h4v1h-4Z M247,229h9v1h-9Z M385,229h9v1h-9Z M491,229h26v1h-26Z M124,230h26v1h-26Z M179,230h1v1h-1Z M247,230h9v1h-9Z M385,230h9v1h-9Z M481,230h46v1h-46Z M114,231h45v1h-45Z M248,231h9v1h-9Z M384,231h9v1h-9Z M475,231h58v1h-58Z M108,232h56v1h-56Z M248,232h9v1h-9Z M384,232h9v1h-9Z M471,232h67v1h-67Z M103,233h65v1h-65Z M248,233h9v1h-9Z M384,233h9v1h-9Z M467,233h75v1h-75Z M99,234h73v1h-73Z M249,234h9v1h-9Z M383,234h9v1h-9Z M464,234h82v1h-82Z M94,235h82v1h-82Z M249,235h9v1h-9Z M383,235h9v1h-9Z M460,235h90v1h-90Z M91,236h88v1h-88Z M249,236h9v1h-9Z M383,236h9v1h-9Z M458,236h95v1h-95Z M88,237h94v1h-94Z M250,237h9v1h-9Z M382,237h9v1h-9Z M455,237h101v1h-101Z M85,238h100v1h-100Z M250,238h9v1h-9Z M382,238h9v1h-9Z M453,238h36v1h-36Z M519,238h40v1h-40Z M81,239h42v1h-42Z M149,239h39v1h-39Z M250,239h9v1h-9Z M382,239h9v1h-9Z M450,239h32v1h-32Z M526,239h36v1h-36Z M79,240h36v1h-36Z M157,240h34v1h-34Z M251,240h9v1h-9Z M381,240h9v1h-9Z M447,240h29v1h-29Z M532,240h33v1h-33Z M76,241h32v1h-32Z M164,241h29v1h-29Z M251,241h9v1h-9Z M381,241h9v1h-9Z M445,241h27v1h-27Z M537,241h31v1h-31Z M74,242h30v1h-30Z M168,242h27v1h-27Z M251,242h9v1h-9Z M381,242h9v1h-9Z M443,242h25v1h-25Z M541,242h29v1h-29Z M71,243h29v1h-29Z M171,243h27v1h-27Z M252,243h9v1h-9Z M380,243h9v1h-9Z M441,243h24v1h-24Z M545,243h28v1h-28Z M68,244h28v1h-28Z M174,244h26v1h-26Z M252,244h9v1h-9Z M380,244h9v1h-9Z M439,244h23v1h-23Z M548,244h27v1h-27Z M66,245h26v1h-26Z M178,245h24v1h-24Z M252,245h9v1h-9Z M380,245h9v1h-9Z M438,245h21v1h-21Z M551,245h26v1h-26Z M64,246h25v1h-25Z M181,246h23v1h-23Z M253,246h9v1h-9Z M379,246h9v1h-9Z M436,246h20v1h-20Z M555,246h24v1h-24Z M62,247h24v1h-24Z M184,247h22v1h-22Z M253,247h9v1h-9Z M379,247h9v1h-9Z M434,247h20v1h-20Z M558,247h23v1h-23Z M60,248h23v1h-23Z M186,248h22v1h-22Z M254,248h8v1h-8Z M379,248h8v1h-8Z M432,248h20v1h-20Z M560,248h23v1h-23Z M58,249h23v1h-23Z M189,249h21v1h-21Z M254,249h9v1h-9Z M378,249h9v1h-9Z M430,249h20v1h-20Z M563,249h22v1h-22Z M56,250h22v1h-22Z M191,250h21v1h-21Z M254,250h9v1h-9Z M378,250h9v1h-9Z M429,250h18v1h-18Z M566,250h21v1h-21Z M54,251h21v1h-21Z M194,251h19v1h-19Z M255,251h9v1h-9Z M377,251h9v1h-9Z M427,251h18v1h-18Z M568,251h21v1h-21Z M52,252h21v1h-21Z M196,252h19v1h-19Z M255,252h9v1h-9Z M377,252h9v1h-9Z M426,252h18v1h-18Z M570,252h21v1h-21Z M50,253h21v1h-21Z M198,253h19v1h-19Z M256,253h9v1h-9Z M376,253h9v1h-9Z M424,253h18v1h-18Z M573,253h20v1h-20Z M48,254h20v1h-20Z M200,254h18v1h-18Z M256,254h9v1h-9Z M376,254h9v1h-9Z M423,254h17v1h-17Z M575,254h20v1h-20Z M47,255h19v1h-19Z M202,255h18v1h-18Z M256,255h9v1h-9Z M376,255h9v1h-9Z M421,255h17v1h-17Z M577,255h19v1h-19Z M45,256h19v1h-19Z M204,256h17v1h-17Z M257,256h9v1h-9Z M375,256h9v1h-9Z M420,256h16v1h-16Z M579,256h19v1h-19Z M43,257h19v1h-19Z M206,257h17v1h-17Z M257,257h9v1h-9Z M375,257h9v1h-9Z M418,257h17v1h-17Z M581,257h19v1h-19Z M42,258h18v1h-18Z M207,258h17v1h-17Z M258,258h9v1h-9Z M374,258h9v1h-9Z M417,258h16v1h-16Z M583,258h18v1h-18Z M40,259h18v1h-18Z M209,259h17v1h-17Z M258,259h9v1h-9Z M374,259h9v1h-9Z M415,259h16v1h-16Z M585,259h18v1h-18Z M38,260h18v1h-18Z M211,260h16v1h-16Z M259,260h8v1h-8Z M373,260h9v1h-9Z M414,260h16v1h-16Z M587,260h17v1h-17Z M37,261h18v1h-18Z M213,261h16v1h-16Z M259,261h9v1h-9Z M373,261h9v1h-9Z M413,261h15v1h-15Z M588,261h18v1h-18Z M35,262h18v1h-18Z M214,262h16v1h-16Z M259,262h9v1h-9Z M373,262h9v1h-9Z M411,262h15v1h-15Z M590,262h18v1h-18Z M34,263h17v1h-17Z M216,263h15v1h-15Z M260,263h9v1h-9Z M372,263h9v1h-9Z M410,263h15v1h-15Z M592,263h17v1h-17Z M33,264h16v1h-16Z M218,264h14v1h-14Z M260,264h9v1h-9Z M372,264h9v1h-9Z M409,264h14v1h-14Z M594,264h16v1h-16Z M31,265h17v1h-17Z M219,265h15v1h-15Z M261,265h9v1h-9Z M371,265h9v1h-9Z M408,265h14v1h-14Z M596,265h16v1h-16Z M30,266h16v1h-16Z M221,266h14v1h-14Z M261,266h9v1h-9Z M371,266h9v1h-9Z M406,266h15v1h-15Z M597,266h17v1h-17Z M28,267h16v1h-16Z M222,267h15v1h-15Z M262,267h9v1h-9Z M370,267h9v1h-9Z M405,267h14v1h-14Z M599,267h16v1h-16Z M27,268h16v1h-16Z M224,268h14v1h-14Z M262,268h9v1h-9Z M370,268h8v1h-8Z M404,268h14v1h-14Z M600,268h16v1h-16Z M25,269h16v1h-16Z M225,269h14v1h-14Z M263,269h9v1h-9Z M369,269h9v1h-9Z M403,269h13v1h-13Z M602,269h16v1h-16Z M24,270h16v1h-16Z M226,270h14v1h-14Z M263,270h9v1h-9Z M369,270h9v1h-9Z M402,270h13v1h-13Z M603,270h16v1h-16Z M23,271h15v1h-15Z M228,271h14v1h-14Z M264,271h9v1h-9Z M368,271h9v1h-9Z M400,271h14v1h-14Z M605,271h15v1h-15Z M21,272h16v1h-16Z M229,272h14v1h-14Z M265,272h8v1h-8Z M367,272h9v1h-9Z M399,272h13v1h-13Z M606,272h16v1h-16Z M20,273h15v1h-15Z M231,273h13v1h-13Z M265,273h9v1h-9Z M367,273h9v1h-9Z M398,273h13v1h-13Z M608,273h15v1h-15Z M19,274h15v1h-15Z M232,274h13v1h-13Z M266,274h8v1h-8Z M366,274h9v1h-9Z M397,274h13v1h-13Z M609,274h15v1h-15Z M18,275h15v1h-15Z M234,275h12v1h-12Z M266,275h9v1h-9Z M366,275h9v1h-9Z M396,275h12v1h-12Z M611,275h14v1h-14Z M16,276h15v1h-15Z M235,276h13v1h-13Z M267,276h8v1h-8Z M365,276h9v1h-9Z M395,276h12v1h-12Z M612,276h15v1h-15Z M15,277h15v1h-15Z M236,277h13v1h-13Z M267,277h9v1h-9Z M365,277h9v1h-9Z M394,277h12v1h-12Z M613,277h15v1h-15Z M14,278h15v1h-15Z M237,278h13v1h-13Z M268,278h9v1h-9Z M364,278h9v1h-9Z M393,278h12v1h-12Z M614,278h15v1h-15Z M13,279h14v1h-14Z M239,279h12v1h-12Z M269,279h8v1h-8Z M364,279h9v1h-9Z M391,279h13v1h-13Z M616,279h15v1h-15Z M12,280h14v1h-14Z M240,280h12v1h-12Z M269,280h9v1h-9Z M363,280h9v1h-9Z M390,280h12v1h-12Z M617,280h15v1h-15Z M11,281h14v1h-14Z M241,281h12v1h-12Z M270,281h8v1h-8Z M363,281h8v1h-8Z M389,281h12v1h-12Z M618,281h15v1h-15Z M10,282h14v1h-14Z M242,282h12v1h-12Z M270,282h9v1h-9Z M362,282h9v1h-9Z M388,282h12v1h-12Z M620,282h14v1h-14Z M8,283h14v1h-14Z M243,283h12v1h-12Z M271,283h9v1h-9Z M362,283h8v1h-8Z M387,283h12v1h-12Z M621,283h14v1h-14Z M7,284h14v1h-14Z M245,284h12v1h-12Z M272,284h8v1h-8Z M361,284h8v1h-8Z M386,284h12v1h-12Z M622,284h14v1h-14Z M6,285h14v1h-14Z M246,285h12v1h-12Z M272,285h9v1h-9Z M360,285h9v1h-9Z M385,285h11v1h-11Z M623,285h14v1h-14Z M5,286h14v1h-14Z M247,286h11v1h-11Z M273,286h8v1h-8Z M360,286h8v1h-8Z M384,286h11v1h-11Z M625,286h13v1h-13Z M4,287h14v1h-14Z M248,287h12v1h-12Z M273,287h9v1h-9Z M359,287h9v1h-9Z M383,287h11v1h-11Z M626,287h13v1h-13Z M3,288h13v1h-13Z M250,288h11v1h-11Z M274,288h9v1h-9Z M358,288h9v1h-9Z M382,288h11v1h-11Z M627,288h13v1h-13Z M2,289h13v1h-13Z M251,289h11v1h-11Z M275,289h8v1h-8Z M358,289h8v1h-8Z M381,289h11v1h-11Z M628,289h13v1h-13Z M1,290h13v1h-13Z M252,290h11v1h-11Z M275,290h9v1h-9Z M357,290h9v1h-9Z M380,290h11v1h-11Z M629,290h13v1h-13Z M1,291h12v1h-12Z M253,291h11v1h-11Z M276,291h8v1h-8Z M357,291h8v1h-8Z M379,291h11v1h-11Z M630,291h12v1h-12Z M1,292h13v1h-13Z M254,292h11v1h-11Z M277,292h8v1h-8Z M356,292h8v1h-8Z M378,292h11v1h-11Z M629,292h13v1h-13Z M2,293h12v1h-12Z M255,293h11v1h-11Z M277,293h9v1h-9Z M355,293h9v1h-9Z M377,293h10v1h-10Z M628,293h13v1h-13Z M3,294h12v1h-12Z M256,294h11v1h-11Z M278,294h8v1h-8Z M355,294h8v1h-8Z M376,294h10v1h-10Z M628,294h12v1h-12Z M4,295h12v1h-12Z M257,295h11v1h-11Z M279,295h8v1h-8Z M354,295h8v1h-8Z M375,295h10v1h-10Z M627,295h12v1h-12Z M5,296h12v1h-12Z M258,296h11v1h-11Z M280,296h8v1h-8Z M353,296h8v1h-8Z M374,296h10v1h-10Z M626,296h12v1h-12Z M6,297h12v1h-12Z M259,297h11v1h-11Z M280,297h8v1h-8Z M353,297h8v1h-8Z M373,297h10v1h-10Z M625,297h12v1h-12Z M7,298h12v1h-12Z M261,298h10v1h-10Z M281,298h8v1h-8Z M352,298h8v1h-8Z M372,298h10v1h-10Z M624,298h12v1h-12Z M7,299h13v1h-13Z M262,299h9v1h-9Z M282,299h8v1h-8Z M351,299h8v1h-8Z M372,299h9v1h-9Z M623,299h13v1h-13Z M8,300h13v1h-13Z M263,300h9v1h-9Z M283,300h7v1h-7Z M351,300h8v1h-8Z M371,300h9v1h-9Z M622,300h13v1h-13Z M9,301h13v1h-13Z M264,301h9v1h-9Z M283,301h8v1h-8Z M350,301h8v1h-8Z M370,301h9v1h-9Z M621,301h13v1h-13Z M10,302h13v1h-13Z M265,302h9v1h-9Z M284,302h8v1h-8Z M349,302h8v1h-8Z M369,302h9v1h-9Z M621,302h12v1h-12Z M11,303h12v1h-12Z M266,303h9v1h-9Z M285,303h7v1h-7Z M349,303h7v1h-7Z M368,303h9v1h-9Z M620,303h12v1h-12Z M12,304h12v1h-12Z M267,304h9v1h-9Z M286,304h7v1h-7Z M348,304h8v1h-8Z M367,304h9v1h-9Z M619,304h12v1h-12Z M13,305h12v1h-12Z M268,305h9v1h-9Z M286,305h8v1h-8Z M347,305h8v1h-8Z M366,305h9v1h-9Z M618,305h12v1h-12Z M14,306h12v1h-12Z M269,306h9v1h-9Z M287,306h8v1h-8Z M347,306h7v1h-7Z M365,306h9v1h-9Z M617,306h12v1h-12Z M15,307h12v1h-12Z M271,307h8v1h-8Z M288,307h7v1h-7Z M346,307h7v1h-7Z M365,307h8v1h-8Z M616,307h12v1h-12Z M16,308h12v1h-12Z M272,308h7v1h-7Z M289,308h7v1h-7Z M345,308h7v1h-7Z M364,308h7v1h-7Z M615,308h12v1h-12Z M17,309h12v1h-12Z M273,309h7v1h-7Z M290,309h7v1h-7Z M344,309h8v1h-8Z M363,309h7v1h-7Z M614,309h13v1h-13Z M18,310h12v1h-12Z M274,310h7v1h-7Z M290,310h8v1h-8Z M344,310h7v1h-7Z M362,310h7v1h-7Z M613,310h13v1h-13Z M19,311h12v1h-12Z M275,311h7v1h-7Z M291,311h7v1h-7Z M343,311h7v1h-7Z M361,311h7v1h-7Z M612,311h13v1h-13Z M20,312h12v1h-12Z M276,312h7v1h-7Z M292,312h7v1h-7Z M342,312h7v1h-7Z M360,312h7v1h-7Z M611,312h13v1h-13Z M20,313h13v1h-13Z M277,313h7v1h-7Z M293,313h7v1h-7Z M342,313h6v1h-6Z M360,313h6v1h-6Z M610,313h13v1h-13Z M21,314h13v1h-13Z M278,314h6v1h-6Z M294,314h7v1h-7Z M341,314h6v1h-6Z M359,314h6v1h-6Z M609,314h13v1h-13Z M22,315h14v1h-14Z M279,315h6v1h-6Z M295,315h6v1h-6Z M340,315h7v1h-7Z M358,315h6v1h-6Z M608,315h13v1h-13Z M23,316h14v1h-14Z M280,316h6v1h-6Z M296,316h6v1h-6Z M340,316h6v1h-6Z M357,316h6v1h-6Z M607,316h13v1h-13Z M24,317h14v1h-14Z M281,317h6v1h-6Z M297,317h6v1h-6Z M339,317h6v1h-6Z M356,317h6v1h-6Z M606,317h13v1h-13Z M25,318h14v1h-14Z M282,318h6v1h-6Z M297,318h7v1h-7Z M338,318h6v1h-6Z M355,318h6v1h-6Z M605,318h13v1h-13Z M26,319h14v1h-14Z M283,319h5v1h-5Z M298,319h6v1h-6Z M337,319h6v1h-6Z M355,319h5v1h-5Z M604,319h13v1h-13Z M28,320h13v1h-13Z M284,320h5v1h-5Z M299,320h6v1h-6Z M336,320h6v1h-6Z M354,320h5v1h-5Z M603,320h13v1h-13Z M29,321h13v1h-13Z M285,321h5v1h-5Z M300,321h6v1h-6Z M336,321h5v1h-5Z M353,321h5v1h-5Z M602,321h13v1h-13Z M30,322h13v1h-13Z M286,322h5v1h-5Z M301,322h6v1h-6Z M335,322h5v1h-5Z M352,322h5v1h-5Z M600,322h14v1h-14Z M31,323h13v1h-13Z M287,323h5v1h-5Z M302,323h5v1h-5Z M334,323h5v1h-5Z M352,323h4v1h-4Z M599,323h14v1h-14Z M32,324h13v1h-13Z M288,324h4v1h-4Z M303,324h5v1h-5Z M334,324h4v1h-4Z M351,324h4v1h-4Z M598,324h14v1h-14Z M33,325h14v1h-14Z M289,325h4v1h-4Z M304,325h5v1h-5Z M333,325h4v1h-4Z M350,325h4v1h-4Z M597,325h14v1h-14Z M34,326h14v1h-14Z M291,326h3v1h-3Z M305,326h5v1h-5Z M332,326h4v1h-4Z M349,326h3v1h-3Z M596,326h14v1h-14Z M35,327h14v1h-14Z M292,327h2v1h-2Z M306,327h5v1h-5Z M331,327h4v1h-4Z M349,327h2v1h-2Z M595,327h14v1h-14Z M36,328h14v1h-14Z M293,328h2v1h-2Z M307,328h4v1h-4Z M330,328h4v1h-4Z M348,328h2v1h-2Z M593,328h15v1h-15Z M37,329h14v1h-14Z M294,329h2v1h-2Z M308,329h4v1h-4Z M330,329h4v1h-4Z M347,329h2v1h-2Z M592,329h14v1h-14Z M38,330h15v1h-15Z M295,330h2v1h-2Z M309,330h4v1h-4Z M329,330h4v1h-4Z M346,330h2v1h-2Z M591,330h14v1h-14Z M40,331h14v1h-14Z M296,331h1v1h-1Z M310,331h4v1h-4Z M328,331h4v1h-4Z M346,331h1v1h-1Z M590,331h14v1h-14Z M41,332h14v1h-14Z M311,332h4v1h-4Z M327,332h4v1h-4Z M588,332h15v1h-15Z M42,333h14v1h-14Z M312,333h3v1h-3Z M327,333h3v1h-3Z M587,333h15v1h-15Z M43,334h15v1h-15Z M313,334h3v1h-3Z M326,334h3v1h-3Z M586,334h14v1h-14Z M44,335h15v1h-15Z M315,335h2v1h-2Z M325,335h3v1h-3Z M584,335h15v1h-15Z M46,336h14v1h-14Z M316,336h2v1h-2Z M324,336h3v1h-3Z M583,336h15v1h-15Z M47,337h15v1h-15Z M317,337h2v1h-2Z M323,337h3v1h-3Z M581,337h16v1h-16Z M48,338h15v1h-15Z M318,338h2v1h-2Z M323,338h2v1h-2Z M580,338h16v1h-16Z M50,339h15v1h-15Z M319,339h1v1h-1Z M322,339h1v1h-1Z M579,339h15v1h-15Z M51,340h15v1h-15Z M577,340h16v1h-16Z M52,341h16v1h-16Z M576,341h16v1h-16Z M53,342h16v1h-16Z M574,342h16v1h-16Z M55,343h16v1h-16Z M318,343h2v1h-2Z M572,343h17v1h-17Z M56,344h16v1h-16Z M304,344h1v1h-1Z M317,344h2v1h-2Z M323,344h2v1h-2Z M338,344h1v1h-1Z M571,344h16v1h-16Z M57,345h17v1h-17Z M301,345h4v1h-4Z M316,345h3v1h-3Z M324,345h2v1h-2Z M338,345h4v1h-4Z M569,345h17v1h-17Z M59,346h16v1h-16Z M299,346h4v1h-4Z M315,346h3v1h-3Z M325,346h2v1h-2Z M340,346h5v1h-5Z M568,346h17v1h-17Z M60,347h17v1h-17Z M297,347h5v1h-5Z M314,347h2v1h-2Z M326,347h2v1h-2Z M342,347h5v1h-5Z M566,347h17v1h-17Z M62,348h17v1h-17Z M295,348h5v1h-5Z M312,348h3v1h-3Z M327,348h3v1h-3Z M343,348h6v1h-6Z M564,348h18v1h-18Z M63,349h17v1h-17Z M292,349h6v1h-6Z M311,349h4v1h-4Z M327,349h4v1h-4Z M345,349h7v1h-7Z M563,349h17v1h-17Z M65,350h17v1h-17Z M289,350h8v1h-8Z M310,350h4v1h-4Z M328,350h4v1h-4Z M346,350h9v1h-9Z M561,350h18v1h-18Z M67,351h17v1h-17Z M287,351h8v1h-8Z M309,351h4v1h-4Z M329,351h4v1h-4Z M348,351h10v1h-10Z M559,351h18v1h-18Z M68,352h18v1h-18Z M284,352h9v1h-9Z M307,352h5v1h-5Z M330,352h4v1h-4Z M350,352h10v1h-10Z M557,352h18v1h-18Z M70,353h17v1h-17Z M282,353h9v1h-9Z M306,353h5v1h-5Z M331,353h5v1h-5Z M352,353h10v1h-10Z M555,353h19v1h-19Z M71,354h18v1h-18Z M279,354h11v1h-11Z M305,354h5v1h-5Z M332,354h5v1h-5Z M354,354h11v1h-11Z M553,354h19v1h-19Z M73,355h19v1h-19Z M276,355h12v1h-12Z M304,355h5v1h-5Z M333,355h5v1h-5Z M356,355h12v1h-12Z M551,355h19v1h-19Z M75,356h19v1h-19Z M274,356h12v1h-12Z M303,356h5v1h-5Z M334,356h5v1h-5Z M358,356h13v1h-13Z M549,356h20v1h-20Z M77,357h19v1h-19Z M271,357h13v1h-13Z M302,357h5v1h-5Z M335,357h5v1h-5Z M360,357h14v1h-14Z M547,357h20v1h-20Z M78,358h20v1h-20Z M268,358h14v1h-14Z M301,358h6v1h-6Z M336,358h5v1h-5Z M362,358h15v1h-15Z M545,358h20v1h-20Z M80,359h20v1h-20Z M265,359h15v1h-15Z M300,359h6v1h-6Z M336,359h6v1h-6Z M363,359h17v1h-17Z M542,359h21v1h-21Z M82,360h20v1h-20Z M262,360h16v1h-16Z M298,360h7v1h-7Z M337,360h7v1h-7Z M365,360h18v1h-18Z M540,360h22v1h-22Z M84,361h21v1h-21Z M259,361h17v1h-17Z M297,361h7v1h-7Z M338,361h7v1h-7Z M368,361h18v1h-18Z M537,361h22v1h-22Z M86,362h21v1h-21Z M256,362h18v1h-18Z M296,362h7v1h-7Z M339,362h7v1h-7Z M370,362h19v1h-19Z M535,362h22v1h-22Z M88,363h22v1h-22Z M252,363h20v1h-20Z M295,363h7v1h-7Z M340,363h7v1h-7Z M372,363h21v1h-21Z M532,363h23v1h-23Z M90,364h23v1h-23Z M249,364h21v1h-21Z M294,364h7v1h-7Z M341,364h7v1h-7Z M374,364h22v1h-22Z M529,364h24v1h-24Z M92,365h24v1h-24Z M246,365h21v1h-21Z M293,365h8v1h-8Z M342,365h7v1h-7Z M377,365h23v1h-23Z M526,365h25v1h-25Z M94,366h24v1h-24Z M242,366h22v1h-22Z M292,366h8v1h-8Z M343,366h7v1h-7Z M380,366h23v1h-23Z M523,366h25v1h-25Z M96,367h26v1h-26Z M239,367h23v1h-23Z M291,367h8v1h-8Z M343,367h8v1h-8Z M382,367h25v1h-25Z M520,367h26v1h-26Z M99,368h26v1h-26Z M234,368h26v1h-26Z M290,368h8v1h-8Z M344,368h7v1h-7Z M384,368h28v1h-28Z M516,368h28v1h-28Z M101,369h28v1h-28Z M230,369h27v1h-27Z M289,369h8v1h-8Z M345,369h7v1h-7Z M387,369h30v1h-30Z M513,369h28v1h-28Z M104,370h29v1h-29Z M225,370h29v1h-29Z M288,370h8v1h-8Z M346,370h7v1h-7Z M390,370h31v1h-31Z M509,370h30v1h-30Z M106,371h31v1h-31Z M221,371h30v1h-30Z M288,371h8v1h-8Z M347,371h7v1h-7Z M393,371h34v1h-34Z M504,371h32v1h-32Z M109,372h35v1h-35Z M215,372h34v1h-34Z M287,372h8v1h-8Z M347,372h8v1h-8Z M395,372h39v1h-39Z M498,372h35v1h-35Z M112,373h37v1h-37Z M208,373h38v1h-38Z M286,373h8v1h-8Z M348,373h8v1h-8Z M398,373h44v1h-44Z M491,373h40v1h-40Z M115,374h42v1h-42Z M200,374h43v1h-43Z M285,374h8v1h-8Z M349,374h8v1h-8Z M402,374h50v1h-50Z M481,374h46v1h-46Z M118,375h49v1h-49Z M190,375h49v1h-49Z M284,375h9v1h-9Z M350,375h8v1h-8Z M406,375h118v1h-118Z M122,376h113v1h-113Z M283,376h9v1h-9Z M350,376h9v1h-9Z M410,376h111v1h-111Z M125,377h106v1h-106Z M282,377h9v1h-9Z M351,377h9v1h-9Z M413,377h105v1h-105Z M129,378h98v1h-98Z M281,378h9v1h-9Z M352,378h8v1h-8Z M418,378h95v1h-95Z M134,379h88v1h-88Z M281,379h8v1h-8Z M353,379h8v1h-8Z M424,379h84v1h-84Z M139,380h78v1h-78Z M280,380h9v1h-9Z M354,380h8v1h-8Z M429,380h74v1h-74Z M144,381h67v1h-67Z M279,381h9v1h-9Z M354,381h9v1h-9Z M435,381h64v1h-64Z M151,382h53v1h-53Z M278,382h9v1h-9Z M355,382h9v1h-9Z M443,382h48v1h-48Z M162,383h31v1h-31Z M277,383h10v1h-10Z M356,383h8v1h-8Z M458,383h18v1h-18Z M277,384h9v1h-9Z M357,384h8v1h-8Z M276,385h9v1h-9Z M357,385h9v1h-9Z M275,386h9v1h-9Z M358,386h9v1h-9Z M274,387h10v1h-10Z M358,387h9v1h-9Z M274,388h9v1h-9Z M359,388h9v1h-9Z M157,389h12v1h-12Z M273,389h9v1h-9Z M360,389h9v1h-9Z M474,389h12v1h-12Z M155,390h13v1h-13Z M272,390h10v1h-10Z M360,390h10v1h-10Z M474,390h14v1h-14Z M154,391h13v1h-13Z M272,391h9v1h-9Z M361,391h9v1h-9Z M476,391h13v1h-13Z M153,392h12v1h-12Z M271,392h9v1h-9Z M362,392h9v1h-9Z M478,392h12v1h-12Z M152,393h12v1h-12Z M270,393h10v1h-10Z M363,393h9v1h-9Z M479,393h12v1h-12Z M150,394h13v1h-13Z M270,394h9v1h-9Z M363,394h9v1h-9Z M480,394h12v1h-12Z M149,395h12v1h-12Z M269,395h9v1h-9Z M364,395h9v1h-9Z M482,395h11v1h-11Z M148,396h12v1h-12Z M268,396h10v1h-10Z M364,396h9v1h-9Z M483,396h12v1h-12Z M147,397h12v1h-12Z M268,397h9v1h-9Z M365,397h9v1h-9Z M484,397h12v1h-12Z M146,398h12v1h-12Z M267,398h10v1h-10Z M366,398h9v1h-9Z M485,398h12v1h-12Z M145,399h11v1h-11Z M267,399h9v1h-9Z M366,399h9v1h-9Z M486,399h12v1h-12Z M144,400h11v1h-11Z M266,400h9v1h-9Z M367,400h9v1h-9Z M487,400h12v1h-12Z M143,401h11v1h-11Z M265,401h10v1h-10Z M367,401h9v1h-9Z M489,401h11v1h-11Z M142,402h11v1h-11Z M265,402h9v1h-9Z M368,402h9v1h-9Z M490,402h11v1h-11Z M141,403h11v1h-11Z M264,403h10v1h-10Z M368,403h10v1h-10Z M491,403h11v1h-11Z M140,404h11v1h-11Z M264,404h9v1h-9Z M369,404h9v1h-9Z M492,404h10v1h-10Z M140,405h10v1h-10Z M263,405h10v1h-10Z M370,405h9v1h-9Z M493,405h10v1h-10Z M139,406h10v1h-10Z M263,406h9v1h-9Z M370,406h9v1h-9Z M494,406h10v1h-10Z M138,407h10v1h-10Z M262,407h9v1h-9Z M371,407h9v1h-9Z M495,407h10v1h-10Z M137,408h10v1h-10Z M262,408h9v1h-9Z M371,408h9v1h-9Z M495,408h11v1h-11Z M136,409h11v1h-11Z M261,409h9v1h-9Z M372,409h9v1h-9Z M496,409h10v1h-10Z M135,410h11v1h-11Z M261,410h9v1h-9Z M372,410h9v1h-9Z M497,410h10v1h-10Z M135,411h10v1h-10Z M260,411h10v1h-10Z M373,411h9v1h-9Z M498,411h10v1h-10Z M134,412h10v1h-10Z M260,412h9v1h-9Z M373,412h9v1h-9Z M499,412h10v1h-10Z M133,413h10v1h-10Z M259,413h9v1h-9Z M374,413h9v1h-9Z M500,413h10v1h-10Z M132,414h10v1h-10Z M259,414h9v1h-9Z M374,414h9v1h-9Z M500,414h10v1h-10Z M132,415h10v1h-10Z M258,415h9v1h-9Z M375,415h9v1h-9Z M501,415h10v1h-10Z M131,416h10v1h-10Z M258,416h9v1h-9Z M375,416h9v1h-9Z M502,416h10v1h-10Z M130,417h10v1h-10Z M257,417h10v1h-10Z M376,417h9v1h-9Z M503,417h9v1h-9Z M130,418h9v1h-9Z M257,418h9v1h-9Z M376,418h9v1h-9Z M504,418h9v1h-9Z M129,419h10v1h-10Z M256,419h10v1h-10Z M376,419h10v1h-10Z M504,419h10v1h-10Z M128,420h10v1h-10Z M256,420h9v1h-9Z M377,420h9v1h-9Z M505,420h9v1h-9Z M128,421h9v1h-9Z M256,421h9v1h-9Z M377,421h9v1h-9Z M506,421h9v1h-9Z M127,422h10v1h-10Z M255,422h10v1h-10Z M378,422h9v1h-9Z M506,422h10v1h-10Z M127,423h9v1h-9Z M255,423h9v1h-9Z M378,423h9v1h-9Z M507,423h9v1h-9Z M126,424h9v1h-9Z M255,424h9v1h-9Z M378,424h9v1h-9Z M508,424h9v1h-9Z M125,425h10v1h-10Z M254,425h9v1h-9Z M379,425h9v1h-9Z M508,425h10v1h-10Z M125,426h9v1h-9Z M254,426h9v1h-9Z M379,426h9v1h-9Z M509,426h9v1h-9Z M124,427h9v1h-9Z M253,427h9v1h-9Z M380,427h9v1h-9Z M509,427h10v1h-10Z M124,428h9v1h-9Z M253,428h9v1h-9Z M380,428h9v1h-9Z M510,428h9v1h-9Z M123,429h9v1h-9Z M253,429h9v1h-9Z M380,429h9v1h-9Z M510,429h10v1h-10Z M122,430h10v1h-10Z M252,430h9v1h-9Z M381,430h9v1h-9Z M511,430h9v1h-9Z M122,431h9v1h-9Z M252,431h9v1h-9Z M381,431h9v1h-9Z M512,431h9v1h-9Z M121,432h10v1h-10Z M252,432h9v1h-9Z M381,432h9v1h-9Z M512,432h9v1h-9Z M121,433h9v1h-9Z M251,433h10v1h-10Z M382,433h9v1h-9Z M513,433h9v1h-9Z M120,434h9v1h-9Z M251,434h9v1h-9Z M382,434h9v1h-9Z M513,434h10v1h-10Z M120,435h9v1h-9Z M251,435h9v1h-9Z M382,435h9v1h-9Z M514,435h9v1h-9Z M119,436h10v1h-10Z M251,436h8v1h-8Z M383,436h9v1h-9Z M514,436h10v1h-10Z M119,437h9v1h-9Z M250,437h9v1h-9Z M383,437h9v1h-9Z M515,437h9v1h-9Z M119,438h9v1h-9Z M250,438h9v1h-9Z M383,438h9v1h-9Z M515,438h9v1h-9Z M118,439h9v1h-9Z M250,439h8v1h-8Z M384,439h8v1h-8Z M516,439h9v1h-9Z M118,440h9v1h-9Z M249,440h9v1h-9Z M384,440h9v1h-9Z M516,440h9v1h-9Z M117,441h9v1h-9Z M249,441h9v1h-9Z M384,441h9v1h-9Z M517,441h9v1h-9Z M117,442h9v1h-9Z M249,442h9v1h-9Z M384,442h9v1h-9Z M517,442h9v1h-9Z M116,443h9v1h-9Z M248,443h9v1h-9Z M385,443h9v1h-9Z M518,443h9v1h-9Z M116,444h9v1h-9Z M248,444h9v1h-9Z M385,444h9v1h-9Z M518,444h9v1h-9Z M115,445h9v1h-9Z M248,445h9v1h-9Z M385,445h9v1h-9Z M518,445h9v1h-9Z M115,446h9v1h-9Z M248,446h9v1h-9Z M385,446h9v1h-9Z M519,446h9v1h-9Z M115,447h9v1h-9Z M240,447h1v1h-1Z M248,447h8v1h-8Z M385,447h10v1h-10Z M519,447h9v1h-9Z M114,448h9v1h-9Z M239,448h2v1h-2Z M247,448h9v1h-9Z M386,448h9v1h-9Z M401,448h1v1h-1Z M520,448h9v1h-9Z M114,449h9v1h-9Z M238,449h3v1h-3Z M247,449h9v1h-9Z M386,449h9v1h-9Z M401,449h2v1h-2Z M520,449h9v1h-9Z M113,450h9v1h-9Z M237,450h4v1h-4Z M247,450h9v1h-9Z M386,450h9v1h-9Z M401,450h3v1h-3Z M521,450h8v1h-8Z M113,451h9v1h-9Z M236,451h4v1h-4Z M247,451h9v1h-9Z M386,451h9v1h-9Z M402,451h3v1h-3Z M521,451h9v1h-9Z M113,452h9v1h-9Z M235,452h5v1h-5Z M247,452h8v1h-8Z M386,452h10v1h-10Z M402,452h3v1h-3Z M521,452h9v1h-9Z M112,453h9v1h-9Z M234,453h6v1h-6Z M246,453h9v1h-9Z M387,453h9v1h-9Z M402,453h4v1h-4Z M522,453h8v1h-8Z M112,454h9v1h-9Z M234,454h6v1h-6Z M246,454h9v1h-9Z M387,454h9v1h-9Z M402,454h5v1h-5Z M522,454h9v1h-9Z M112,455h9v1h-9Z M233,455h7v1h-7Z M246,455h9v1h-9Z M387,455h9v1h-9Z M402,455h6v1h-6Z M522,455h9v1h-9Z M111,456h9v1h-9Z M232,456h7v1h-7Z M246,456h9v1h-9Z M387,456h9v1h-9Z M403,456h6v1h-6Z M523,456h8v1h-8Z M111,457h9v1h-9Z M231,457h8v1h-8Z M246,457h8v1h-8Z M388,457h8v1h-8Z M403,457h7v1h-7Z M523,457h9v1h-9Z M111,458h9v1h-9Z M230,458h9v1h-9Z M246,458h8v1h-8Z M388,458h9v1h-9Z M403,458h8v1h-8Z M523,458h9v1h-9Z M110,459h9v1h-9Z M229,459h10v1h-10Z M245,459h9v1h-9Z M388,459h9v1h-9Z M403,459h9v1h-9Z M524,459h8v1h-8Z M110,460h9v1h-9Z M227,460h11v1h-11Z M245,460h9v1h-9Z M388,460h9v1h-9Z M403,460h10v1h-10Z M524,460h9v1h-9Z M110,461h9v1h-9Z M226,461h11v1h-11Z M245,461h9v1h-9Z M388,461h9v1h-9Z M404,461h10v1h-10Z M524,461h9v1h-9Z M109,462h9v1h-9Z M225,462h11v1h-11Z M245,462h9v1h-9Z M388,462h9v1h-9Z M405,462h10v1h-10Z M524,462h9v1h-9Z M109,463h9v1h-9Z M224,463h11v1h-11Z M245,463h9v1h-9Z M388,463h9v1h-9Z M406,463h10v1h-10Z M525,463h9v1h-9Z M109,464h9v1h-9Z M223,464h11v1h-11Z M245,464h8v1h-8Z M389,464h8v1h-8Z M407,464h10v1h-10Z M525,464h9v1h-9Z M109,465h9v1h-9Z M222,465h11v1h-11Z M245,465h8v1h-8Z M389,465h9v1h-9Z M408,465h11v1h-11Z M525,465h9v1h-9Z M108,466h9v1h-9Z M220,466h12v1h-12Z M244,466h9v1h-9Z M389,466h9v1h-9Z M409,466h11v1h-11Z M526,466h8v1h-8Z M108,467h9v1h-9Z M219,467h12v1h-12Z M244,467h9v1h-9Z M389,467h9v1h-9Z M410,467h11v1h-11Z M526,467h9v1h-9Z M108,468h9v1h-9Z M218,468h12v1h-12Z M244,468h9v1h-9Z M389,468h9v1h-9Z M411,468h12v1h-12Z M526,468h9v1h-9Z M108,469h8v1h-8Z M217,469h12v1h-12Z M244,469h9v1h-9Z M389,469h9v1h-9Z M412,469h12v1h-12Z M526,469h9v1h-9Z M107,470h9v1h-9Z M215,470h13v1h-13Z M244,470h9v1h-9Z M389,470h9v1h-9Z M413,470h12v1h-12Z M527,470h8v1h-8Z M107,471h9v1h-9Z M214,471h13v1h-13Z M244,471h9v1h-9Z M389,471h9v1h-9Z M414,471h13v1h-13Z M527,471h9v1h-9Z M107,472h9v1h-9Z M213,472h12v1h-12Z M244,472h9v1h-9Z M389,472h9v1h-9Z M415,472h13v1h-13Z M527,472h9v1h-9Z M107,473h8v1h-8Z M211,473h13v1h-13Z M244,473h9v1h-9Z M389,473h9v1h-9Z M416,473h13v1h-13Z M527,473h9v1h-9Z M106,474h9v1h-9Z M210,474h13v1h-13Z M244,474h9v1h-9Z M389,474h9v1h-9Z M417,474h14v1h-14Z M528,474h8v1h-8Z M106,475h9v1h-9Z M208,475h14v1h-14Z M244,475h9v1h-9Z M389,475h9v1h-9Z M418,475h14v1h-14Z M528,475h9v1h-9Z M106,476h9v1h-9Z M206,476h14v1h-14Z M244,476h9v1h-9Z M389,476h9v1h-9Z M420,476h14v1h-14Z M528,476h9v1h-9Z M106,477h9v1h-9Z M205,477h14v1h-14Z M244,477h8v1h-8Z M390,477h8v1h-8Z M421,477h15v1h-15Z M528,477h9v1h-9Z M106,478h8v1h-8Z M203,478h15v1h-15Z M244,478h8v1h-8Z M390,478h8v1h-8Z M423,478h14v1h-14Z M528,478h9v1h-9Z M105,479h9v1h-9Z M201,479h15v1h-15Z M244,479h8v1h-8Z M390,479h8v1h-8Z M424,479h15v1h-15Z M528,479h9v1h-9Z M105,480h9v1h-9Z M200,480h15v1h-15Z M244,480h8v1h-8Z M390,480h8v1h-8Z M425,480h16v1h-16Z M529,480h8v1h-8Z M105,481h9v1h-9Z M198,481h15v1h-15Z M244,481h8v1h-8Z M390,481h9v1h-9Z M427,481h15v1h-15Z M529,481h9v1h-9Z M105,482h9v1h-9Z M196,482h16v1h-16Z M244,482h8v1h-8Z M390,482h9v1h-9Z M428,482h16v1h-16Z M529,482h9v1h-9Z M105,483h8v1h-8Z M194,483h16v1h-16Z M244,483h8v1h-8Z M389,483h10v1h-10Z M430,483h16v1h-16Z M529,483h9v1h-9Z M105,484h8v1h-8Z M192,484h17v1h-17Z M244,484h8v1h-8Z M389,484h9v1h-9Z M431,484h18v1h-18Z M529,484h9v1h-9Z M104,485h9v1h-9Z M190,485h17v1h-17Z M244,485h8v1h-8Z M389,485h9v1h-9Z M433,485h18v1h-18Z M530,485h8v1h-8Z M104,486h9v1h-9Z M188,486h17v1h-17Z M244,486h9v1h-9Z M389,486h9v1h-9Z M435,486h18v1h-18Z M530,486h8v1h-8Z M104,487h9v1h-9Z M185,487h19v1h-19Z M244,487h9v1h-9Z M389,487h9v1h-9Z M436,487h19v1h-19Z M530,487h8v1h-8Z M104,488h9v1h-9Z M183,488h19v1h-19Z M244,488h9v1h-9Z M389,488h9v1h-9Z M438,488h20v1h-20Z M530,488h9v1h-9Z M104,489h9v1h-9Z M180,489h20v1h-20Z M244,489h9v1h-9Z M389,489h9v1h-9Z M440,489h20v1h-20Z M530,489h9v1h-9Z M104,490h8v1h-8Z M177,490h21v1h-21Z M244,490h9v1h-9Z M389,490h9v1h-9Z M442,490h21v1h-21Z M530,490h9v1h-9Z M104,491h8v1h-8Z M174,491h22v1h-22Z M244,491h9v1h-9Z M389,491h9v1h-9Z M444,491h22v1h-22Z M530,491h9v1h-9Z M104,492h8v1h-8Z M171,492h23v1h-23Z M244,492h9v1h-9Z M389,492h9v1h-9Z M446,492h23v1h-23Z M531,492h8v1h-8Z M103,493h9v1h-9Z M167,493h25v1h-25Z M244,493h9v1h-9Z M389,493h9v1h-9Z M448,493h25v1h-25Z M531,493h8v1h-8Z M103,494h9v1h-9Z M163,494h26v1h-26Z M244,494h9v1h-9Z M389,494h9v1h-9Z M450,494h27v1h-27Z M531,494h8v1h-8Z M103,495h9v1h-9Z M159,495h28v1h-28Z M244,495h9v1h-9Z M389,495h9v1h-9Z M453,495h28v1h-28Z M531,495h8v1h-8Z M103,496h9v1h-9Z M153,496h32v1h-32Z M244,496h9v1h-9Z M389,496h9v1h-9Z M455,496h31v1h-31Z M531,496h8v1h-8Z M103,497h11v1h-11Z M145,497h37v1h-37Z M244,497h9v1h-9Z M389,497h9v1h-9Z M457,497h36v1h-36Z M530,497h10v1h-10Z M103,498h76v1h-76Z M244,498h9v1h-9Z M389,498h9v1h-9Z M460,498h44v1h-44Z M517,498h23v1h-23Z M103,499h73v1h-73Z M245,499h9v1h-9Z M388,499h10v1h-10Z M463,499h77v1h-77Z M103,500h69v1h-69Z M245,500h9v1h-9Z M388,500h10v1h-10Z M466,500h74v1h-74Z M103,501h66v1h-66Z M245,501h9v1h-9Z M388,501h9v1h-9Z M469,501h71v1h-71Z M103,502h62v1h-62Z M245,502h9v1h-9Z M388,502h9v1h-9Z M473,502h67v1h-67Z M103,503h58v1h-58Z M245,503h9v1h-9Z M388,503h9v1h-9Z M478,503h62v1h-62Z M103,504h52v1h-52Z M245,504h9v1h-9Z M388,504h9v1h-9Z M483,504h57v1h-57Z M107,505h42v1h-42Z M245,505h9v1h-9Z M388,505h9v1h-9Z M489,505h47v1h-47Z M118,506h23v1h-23Z M245,506h10v1h-10Z M388,506h9v1h-9Z M495,506h33v1h-33Z M246,507h9v1h-9Z M387,507h10v1h-10Z M246,508h9v1h-9Z M387,508h9v1h-9Z M246,509h9v1h-9Z M387,509h9v1h-9Z M246,510h9v1h-9Z M387,510h9v1h-9Z M246,511h10v1h-10Z M387,511h9v1h-9Z M246,512h10v1h-10Z M386,512h10v1h-10Z M247,513h9v1h-9Z M386,513h10v1h-10Z M247,514h9v1h-9Z M386,514h9v1h-9Z M247,515h9v1h-9Z M386,515h9v1h-9Z M247,516h9v1h-9Z M386,516h9v1h-9Z M247,517h10v1h-10Z M385,517h10v1h-10Z M248,518h9v1h-9Z M385,518h10v1h-10Z M248,519h9v1h-9Z M385,519h9v1h-9Z M248,520h9v1h-9Z M385,520h9v1h-9Z M248,521h10v1h-10Z M384,521h10v1h-10Z M249,522h9v1h-9Z M384,522h10v1h-10Z M249,523h9v1h-9Z M384,523h9v1h-9Z M249,524h9v1h-9Z M384,524h9v1h-9Z M249,525h10v1h-10Z M383,525h10v1h-10Z M250,526h9v1h-9Z M383,526h10v1h-10Z M250,527h9v1h-9Z M383,527h9v1h-9Z M250,528h10v1h-10Z M382,528h10v1h-10Z M250,529h10v1h-10Z M382,529h10v1h-10Z M251,530h9v1h-9Z M382,530h9v1h-9Z M251,531h9v1h-9Z M381,531h10v1h-10Z M251,532h10v1h-10Z M381,532h10v1h-10Z M252,533h9v1h-9Z M381,533h9v1h-9Z M252,534h9v1h-9Z M381,534h9v1h-9Z M252,535h10v1h-10Z M380,535h10v1h-10Z M253,536h9v1h-9Z M380,536h9v1h-9Z M253,537h9v1h-9Z M380,537h9v1h-9Z M253,538h10v1h-10Z M379,538h10v1h-10Z M254,539h9v1h-9Z M379,539h9v1h-9Z M254,540h9v1h-9Z M378,540h10v1h-10Z M254,541h10v1h-10Z M378,541h10v1h-10Z M255,542h9v1h-9Z M377,542h10v1h-10Z M255,543h10v1h-10Z M377,543h10v1h-10Z M255,544h10v1h-10Z M377,544h10v1h-10Z M256,545h10v1h-10Z M376,545h10v1h-10Z M256,546h10v1h-10Z M376,546h10v1h-10Z M257,547h9v1h-9Z M376,547h9v1h-9Z M257,548h10v1h-10Z M375,548h10v1h-10Z M257,549h10v1h-10Z M375,549h10v1h-10Z M258,550h10v1h-10Z M374,550h10v1h-10Z M258,551h10v1h-10Z M374,551h10v1h-10Z M259,552h9v1h-9Z M373,552h10v1h-10Z M259,553h10v1h-10Z M373,553h10v1h-10Z M260,554h9v1h-9Z M372,554h10v1h-10Z M260,555h10v1h-10Z M372,555h10v1h-10Z M261,556h9v1h-9Z M371,556h11v1h-11Z M261,557h10v1h-10Z M371,557h10v1h-10Z M261,558h10v1h-10Z M370,558h10v1h-10Z M262,559h10v1h-10Z M370,559h10v1h-10Z M262,560h10v1h-10Z M369,560h11v1h-11Z M263,561h10v1h-10Z M369,561h10v1h-10Z M263,562h11v1h-11Z M368,562h11v1h-11Z M264,563h10v1h-10Z M368,563h10v1h-10Z M264,564h11v1h-11Z M367,564h11v1h-11Z M265,565h10v1h-10Z M367,565h10v1h-10Z M265,566h11v1h-11Z M366,566h10v1h-10Z M266,567h10v1h-10Z M366,567h10v1h-10Z M267,568h10v1h-10Z M365,568h10v1h-10Z M267,569h10v1h-10Z M364,569h11v1h-11Z M268,570h10v1h-10Z M364,570h10v1h-10Z M268,571h11v1h-11Z M363,571h11v1h-11Z M269,572h10v1h-10Z M362,572h11v1h-11Z M269,573h11v1h-11Z M362,573h10v1h-10Z M270,574h10v1h-10Z M361,574h11v1h-11Z M271,575h10v1h-10Z M361,575h10v1h-10Z M271,576h11v1h-11Z M360,576h11v1h-11Z M272,577h10v1h-10Z M359,577h11v1h-11Z M272,578h11v1h-11Z M359,578h10v1h-10Z M273,579h11v1h-11Z M358,579h11v1h-11Z M274,580h10v1h-10Z M357,580h11v1h-11Z M274,581h11v1h-11Z M357,581h11v1h-11Z M275,582h11v1h-11Z M356,582h11v1h-11Z M276,583h10v1h-10Z M355,583h11v1h-11Z M276,584h11v1h-11Z M354,584h11v1h-11Z M277,585h11v1h-11Z M354,585h11v1h-11Z M278,586h11v1h-11Z M353,586h11v1h-11Z M278,587h11v1h-11Z M352,587h12v1h-12Z M279,588h11v1h-11Z M352,588h11v1h-11Z M280,589h11v1h-11Z M351,589h11v1h-11Z M281,590h11v1h-11Z M350,590h11v1h-11Z M281,591h11v1h-11Z M349,591h12v1h-12Z M282,592h11v1h-11Z M349,592h11v1h-11Z M283,593h11v1h-11Z M348,593h11v1h-11Z M283,594h12v1h-12Z M347,594h12v1h-12Z M284,595h12v1h-12Z M346,595h12v1h-12Z M285,596h11v1h-11Z M345,596h12v1h-12Z M286,597h11v1h-11Z M345,597h11v1h-11Z M286,598h12v1h-12Z M344,598h11v1h-11Z M287,599h12v1h-12Z M343,599h12v1h-12Z M288,600h12v1h-12Z M342,600h12v1h-12Z M289,601h12v1h-12Z M341,601h12v1h-12Z M290,602h11v1h-11Z M340,602h12v1h-12Z M291,603h11v1h-11Z M340,603h11v1h-11Z M291,604h12v1h-12Z M339,604h12v1h-12Z M292,605h12v1h-12Z M338,605h12v1h-12Z M293,606h12v1h-12Z M337,606h12v1h-12Z M294,607h12v1h-12Z M336,607h12v1h-12Z M295,608h12v1h-12Z M335,608h12v1h-12Z M295,609h13v1h-13Z M334,609h12v1h-12Z M296,610h13v1h-13Z M333,610h12v1h-12Z M297,611h13v1h-13Z M332,611h13v1h-13Z M298,612h13v1h-13Z M331,612h13v1h-13Z M299,613h13v1h-13Z M330,613h13v1h-13Z M300,614h13v1h-13Z M329,614h13v1h-13Z M301,615h13v1h-13Z M328,615h13v1h-13Z M302,616h13v1h-13Z M327,616h13v1h-13Z M303,617h13v1h-13Z M326,617h13v1h-13Z M304,618h13v1h-13Z M325,618h13v1h-13Z M305,619h13v1h-13Z M324,619h13v1h-13Z M306,620h13v1h-13Z M323,620h13v1h-13Z M307,621h13v1h-13Z M322,621h13v1h-13Z M308,622h26v1h-26Z M309,623h24v1h-24Z M310,624h22v1h-22Z M311,625h20v1h-20Z M312,626h18v1h-18Z M313,627h16v1h-16Z M314,628h14v1h-14Z M315,629h12v1h-12Z M316,630h10v1h-10Z M317,631h8v1h-8Z M318,632h6v1h-6Z M319,633h4v1h-4Z M320,634h2v1h-2Z"/>
</svg>